# xmcd CD database file
#
# Track frame offsets:
#	150
#	9030
#	22170
#	35165
#	46810
#	59945
#	70410
#	80682
#	94332
#	108202
#	120825
#	130037
#	144657
#	154485
#	159977
#	169210
#	182845
#	196610
#	206362
#	219102
#	230045
#	245387
#	263217
#	277200
#	285785
#	297962
#	310665
#	326070
#
# Disc length: 4547 seconds
#
# Revision: 1
# Processed by: cddbd v1.4PL0 Copyright (c) Steve Scherf et al.
# Submitted via: CDex 1.40Release
#
DISCID=9711c11c
DTITLE=The Small Faces - The Definitive Anthology Of The Small Faces Disk 1
DYEAR=1995
DGENRE=
TTITLE0=Watcha Gonna Do About It
TTITLE1=What's The Matter Baby
TTITLE2=I've Got Mine
TTITLE3=It's Too Late
TTITLE4=Sha-La-La-La-Lee
TTITLE5=Grow Your Own
TTITLE6=Hey Girl
TTITLE7=Almost Grown
TTITLE8=All Or Nothing
TTITLE9=Understanding
TTITLE10=My MInds Eye
TTITLE11=I Can't Dance With You
TTITLE12=I Can't Make It
TTITLE13=Just Passing
TTITLE14=Patterns
TTITLE15=E To D
TTITLE16=Here Comes The NIce
TTITLE17=Talk To You
TTITLE18=Itchycoo Park
TTITLE19=I'm Omly Dreaming
TTITLE20=Tin Soldier
TTITLE21=I Feel Much Better
TTITLE22=Lazy Sunday
TTITLE23=Rollin' Over
TTITLE24=The Universal
TTITLE25=Donley Rides A Penny A Glass
TTITLE26=Afterglow Of Your Love
TTITLE27=Wham Bam Thank You Mam
EXTD=YEAR: 1995
EXTT0=
EXTT1=
EXTT2=
EXTT3=
EXTT4=
EXTT5=
EXTT6=
EXTT7=
EXTT8=
EXTT9=
EXTT10=
EXTT11=
EXTT12=
EXTT13=
EXTT14=
EXTT15=
EXTT16=
EXTT17=
EXTT18=
EXTT19=
EXTT20=
EXTT21=
EXTT22=
EXTT23=
EXTT24=
EXTT25=
EXTT26=
EXTT27=
PLAYORDER=
